<?xml version="1.0" encoding="UTF-8" standalone="no"?>
<!DOCTYPE svg PUBLIC "-//W3C//DTD SVG 1.1//EN" "http://www.w3.org/Graphics/SVG/1.1/DTD/svg11.dtd">
<svg width="100%" height="100%" viewBox="0 0 64 64" version="1.1" xmlns="http://www.w3.org/2000/svg" xmlns:xlink="http://www.w3.org/1999/xlink" xml:space="preserve" xmlns:serif="http://www.serif.com/" style="fill-rule:evenodd;clip-rule:evenodd;stroke-linejoin:round;stroke-miterlimit:2;">
    <g>
        <path d="M43.1,20.2C43.1,20.7 42.6,21.2 42.1,21.2L34.3,21.2C33.8,21.2 33.3,20.7 33.3,20.2C33.3,19.7 33.8,19.2 34.3,19.2L42.1,19.2C42.6,19.2 43.1,19.6 43.1,20.2Z" style="fill:rgb(49,50,58);fill-rule:nonzero;"/>
        <path d="M28.7,25.9C28.7,26.5 28.2,26.9 27.7,26.9L16.4,26.9C15.9,26.9 15.4,26.5 15.4,25.9C15.4,25.4 15.9,24.9 16.4,24.9L27.7,24.9C28.2,24.9 28.7,25.3 28.7,25.9Z" style="fill:rgb(49,50,58);fill-rule:nonzero;"/>
        <path d="M24,31.6C24,32.1 23.6,32.6 23,32.6L16.4,32.6C15.9,32.6 15.4,32.1 15.4,31.6C15.4,31 15.9,30.6 16.4,30.6L23,30.6C23.6,30.6 24,31.1 24,31.6Z" style="fill:rgb(49,50,58);fill-rule:nonzero;"/>
        <path d="M23.3,37.4C23.3,37.9 22.8,38.4 22.3,38.4L16.4,38.4C15.9,38.4 15.4,37.9 15.4,37.4C15.4,36.8 15.9,36.4 16.4,36.4L22.3,36.4C22.8,36.4 23.3,36.8 23.3,37.4Z" style="fill:rgb(49,50,58);fill-rule:nonzero;"/>
        <path d="M24,43.1C24,43.6 23.6,44.1 23,44.1L16.4,44.1C15.9,44.1 15.4,43.6 15.4,43.1C15.4,42.5 15.9,42.1 16.4,42.1L23,42.1C23.6,42.1 24,42.6 24,43.1Z" style="fill:rgb(49,50,58);fill-rule:nonzero;"/>
        <path d="M46.7,31.2C42.8,27.3 36.5,27.3 32.6,31.2C28.7,35.1 28.7,41.4 32.6,45.3C34.5,47.2 37,48.2 39.7,48.2C42.4,48.2 44.9,47.2 46.8,45.3C48.7,43.4 49.7,40.9 49.7,38.2C49.7,35.6 48.6,33.1 46.7,31.2ZM45.3,43.9C43.8,45.4 41.8,46.2 39.6,46.2C37.5,46.2 35.5,45.4 34,43.9C30.9,40.8 30.9,35.7 34,32.6C35.6,31.1 37.6,30.3 39.6,30.3C41.7,30.3 43.7,31.1 45.3,32.6C46.8,34.1 47.6,36.1 47.6,38.2C47.7,40.4 46.8,42.4 45.3,43.9Z" style="fill:rgb(49,50,58);fill-rule:nonzero;"/>
        <path d="M50,27.9C49.1,27 48,26.2 46.9,25.5L46.9,12.7C46.9,12.6 46.9,12.6 46.8,12.5L46.8,12.4C46.8,12.3 46.7,12.3 46.6,12.2L36,1.7L35.9,1.7C35.8,1.6 35.8,1.6 35.7,1.5L10.7,1.5C10.1,1.5 9.7,2 9.7,2.5L9.7,49.5C9.7,50 10.1,50.5 10.7,50.5L22.8,50.5L16.3,57C15,58.3 15,60.4 16.3,61.7C17,62.4 17.8,62.7 18.7,62.7C19.6,62.7 20.4,62.4 21.1,61.7L32,50.7C34.3,52.1 36.9,52.9 39.7,52.9C43.6,52.9 47.3,51.4 50.1,48.6C55.7,42.9 55.7,33.6 50,27.9ZM36.3,4.8L43.5,12L36.3,12L36.3,4.8ZM11.7,48.4L11.7,3.4L34.3,3.4L34.3,13C34.3,13.5 34.8,14 35.3,14L44.9,14L44.9,24.6C43.2,24 41.5,23.6 39.6,23.6C35.7,23.6 32,25.1 29.3,27.9C24.4,32.8 23.7,40.3 27.2,45.9L24.8,48.3L11.7,48.3L11.7,48.4ZM19.7,60.2C19.2,60.7 18.3,60.7 17.8,60.2C17.3,59.7 17.3,58.8 17.8,58.3L28.5,47.6C28.8,47.9 29.1,48.3 29.4,48.6C29.7,48.9 30.1,49.2 30.4,49.5L19.7,60.2ZM48.6,47.2C46.2,49.6 43,50.9 39.7,50.9C36.3,50.9 33.2,49.6 30.8,47.2C25.9,42.3 25.9,34.3 30.8,29.3C33.2,26.9 36.4,25.6 39.7,25.6C43.1,25.6 46.3,26.9 48.6,29.3C53.5,34.3 53.5,42.3 48.6,47.2Z" style="fill:rgb(49,50,58);fill-rule:nonzero;"/>
        <path d="M43.5,12L36.3,12L36.3,4.8L43.5,12Z" style="fill:rgb(187,168,140);fill-rule:nonzero;"/>
        <path d="M35.3,14L44.9,14L44.9,24.7C43.2,24 41.4,23.7 39.6,23.7C35.7,23.7 32.1,25.2 29.3,28C24.4,32.9 23.7,40.4 27.2,46L24.8,48.4L11.7,48.4L11.7,3.4L34.3,3.4L34.3,13C34.3,13.5 34.8,14 35.3,14ZM15.4,37.4C15.4,37.9 15.9,38.4 16.4,38.4L22.3,38.4C22.8,38.4 23.3,37.9 23.3,37.4C23.3,36.8 22.8,36.4 22.3,36.4L16.4,36.4C15.9,36.4 15.4,36.8 15.4,37.4ZM27.7,26.9C28.2,26.9 28.7,26.5 28.7,25.9C28.7,25.4 28.2,24.9 27.7,24.9L16.4,24.9C15.9,24.9 15.4,25.4 15.4,25.9C15.4,26.5 15.9,26.9 16.4,26.9L27.7,26.9ZM42.1,21.2C42.6,21.2 43.1,20.7 43.1,20.2C43.1,19.7 42.6,19.2 42.1,19.2L34.3,19.2C33.8,19.2 33.3,19.7 33.3,20.2C33.3,20.7 33.8,21.2 34.3,21.2L42.1,21.2ZM23,44.1C23.6,44.1 24,43.7 24,43.1C24,42.5 23.6,42.1 23,42.1L16.4,42.1C15.9,42.1 15.4,42.5 15.4,43.1C15.4,43.6 15.9,44.1 16.4,44.1L23,44.1ZM23,32.6C23.6,32.6 24,32.2 24,31.6C24,31 23.6,30.6 23,30.6L16.4,30.6C15.9,30.6 15.4,31 15.4,31.6C15.4,32.1 15.9,32.6 16.4,32.6L23,32.6Z" style="fill:rgb(249,224,187);"/>
        <g transform="matrix(1.461224,0,0,1.461224,-12.727419,-4.723315)">
            <path d="M19.263,17.741L19.263,11.741L20.763,11.741L20.763,10.241L23.763,10.241L23.763,11.741L25.263,11.741L25.263,17.741L23.763,17.741L23.763,14.741L20.763,14.741L20.763,17.741L19.263,17.741ZM20.763,13.241L23.763,13.241L23.763,11.801L20.763,11.801L20.763,13.241Z" style="fill:rgb(49,50,58);fill-rule:nonzero;"/>
            <rect x="28.263" y="10.241" width="1.5" height="7.5" style="fill:rgb(49,50,58);fill-rule:nonzero;"/>
        </g>
        <path d="M48.6,29.3C46.2,26.9 43,25.6 39.7,25.6C36.3,25.6 33.2,26.9 30.8,29.3C25.9,34.2 25.9,42.2 30.8,47.2C33.2,49.6 36.4,50.9 39.7,50.9C43.1,50.9 46.3,49.6 48.6,47.2C53.5,42.3 53.5,34.3 48.6,29.3ZM46.7,45.3C44.8,47.2 42.3,48.2 39.6,48.2C36.9,48.2 34.4,47.2 32.5,45.3C28.6,41.4 28.6,35.1 32.5,31.2C36.4,27.3 42.7,27.3 46.6,31.2C48.5,33.1 49.5,35.6 49.5,38.3C49.7,40.9 48.6,43.5 46.7,45.3Z" style="fill:rgb(129,133,149);fill-rule:nonzero;"/>
        <path d="M47.7,38.3C47.7,40.4 46.9,42.4 45.4,44C43.9,45.6 41.9,46.3 39.7,46.3C37.6,46.3 35.6,45.5 34.1,44C31,40.9 31,35.8 34.1,32.7C35.7,31.2 37.7,30.4 39.7,30.4C41.8,30.4 43.8,31.2 45.4,32.7C46.8,34.1 47.7,36.1 47.7,38.3Z" style="fill:rgb(160,233,255);fill-rule:nonzero;"/>
        <path d="M30.3,49.5L19.7,60.2C19.2,60.7 18.3,60.7 17.8,60.2C17.3,59.7 17.3,58.8 17.8,58.3L28.5,47.6C28.8,47.9 29.1,48.3 29.4,48.6C29.6,48.9 30,49.2 30.3,49.5Z" style="fill:rgb(214,214,216);fill-rule:nonzero;"/>
    </g>
</svg>
